<mxfile host="65bd71144e">
    <diagram id="Va2F_s6wSQc69Bck7_Kn" name="Page-3">
        <mxGraphModel dx="3063" dy="2733" grid="1" gridSize="10" guides="1" tooltips="1" connect="1" arrows="1" fold="1" page="1" pageScale="1" pageWidth="827" pageHeight="1169" background="#FFFFFF" math="0" shadow="0">
            <root>
                <mxCell id="LVs58O9YVb5k__v3N2jz-0"/>
                <mxCell id="LVs58O9YVb5k__v3N2jz-1" parent="LVs58O9YVb5k__v3N2jz-0"/>
                <mxCell id="pGp3EfEjl50-WbtwnHvr-33" value="" style="rounded=0;whiteSpace=wrap;html=1;strokeColor=#333333;strokeWidth=2;fillColor=#F7F7F7;" vertex="1" parent="LVs58O9YVb5k__v3N2jz-1">
                    <mxGeometry x="-605.77" y="1110" width="980" height="140" as="geometry"/>
                </mxCell>
                <mxCell id="pGp3EfEjl50-WbtwnHvr-21" value="" style="shape=cylinder3;whiteSpace=wrap;html=1;boundedLbl=1;backgroundOutline=1;size=15;labelBackgroundColor=none;fontSize=16;fontColor=#000000;strokeColor=#4D4D4D;strokeWidth=2;fillColor=#FFFFFF;" vertex="1" parent="LVs58O9YVb5k__v3N2jz-1">
                    <mxGeometry x="1220" y="515" width="180" height="195" as="geometry"/>
                </mxCell>
                <mxCell id="kYMx-5tcmwCGb7-HMbAH-30" value="" style="rounded=0;whiteSpace=wrap;html=1;strokeColor=#333333;strokeWidth=2;fillColor=#F7F7F7;" vertex="1" parent="LVs58O9YVb5k__v3N2jz-1">
                    <mxGeometry x="590" y="1110" width="520" height="140" as="geometry"/>
                </mxCell>
                <mxCell id="w0KFx9JzpML0O4RxQ3yX-5" value="" style="rounded=0;whiteSpace=wrap;html=1;labelBackgroundColor=none;fontSize=15;fontColor=#030303;fillColor=#FFFF99;strokeWidth=2;strokeColor=#333333;" vertex="1" parent="LVs58O9YVb5k__v3N2jz-1">
                    <mxGeometry x="-610" y="110" width="1770" height="970" as="geometry"/>
                </mxCell>
                <mxCell id="pGp3EfEjl50-WbtwnHvr-5" value="" style="rounded=0;whiteSpace=wrap;html=1;strokeColor=#333333;strokeWidth=2;fillColor=#F7F7F7;" vertex="1" parent="LVs58O9YVb5k__v3N2jz-1">
                    <mxGeometry x="827" y="220" width="293" height="270" as="geometry"/>
                </mxCell>
                <mxCell id="R8-8-l1SJN_ILTi5o2wE-1" value="" style="rounded=0;whiteSpace=wrap;html=1;labelBackgroundColor=none;fontSize=15;fontColor=#030303;fillColor=#FFCC99;strokeWidth=2;strokeColor=#333333;" parent="LVs58O9YVb5k__v3N2jz-1" vertex="1">
                    <mxGeometry x="100" y="220" width="700" height="520" as="geometry"/>
                </mxCell>
                <mxCell id="lWeB1JLwc1sc2tE-N1J9-0" value="" style="rounded=0;whiteSpace=wrap;html=1;labelBackgroundColor=none;fontSize=15;fontColor=#030303;fillColor=#FFB366;strokeWidth=2;strokeColor=#4D4D4D;" parent="LVs58O9YVb5k__v3N2jz-1" vertex="1">
                    <mxGeometry x="210" y="320" width="310" height="240" as="geometry"/>
                </mxCell>
                <mxCell id="lWeB1JLwc1sc2tE-N1J9-1" value="&lt;b&gt;&lt;font style=&quot;font-size: 18px&quot;&gt;Domain Models:&lt;/font&gt;&lt;/b&gt;" style="text;html=1;strokeColor=none;fillColor=none;align=center;verticalAlign=middle;whiteSpace=wrap;rounded=0;labelBackgroundColor=none;fontSize=15;fontColor=#030303;" parent="LVs58O9YVb5k__v3N2jz-1" vertex="1">
                    <mxGeometry x="210" y="320" width="170" height="30" as="geometry"/>
                </mxCell>
                <mxCell id="APyF7GBWkw_ZN4u4eyRF-0" value="&amp;lt;Interface&amp;gt;&lt;br&gt;ISubscribtionModel" style="rounded=0;whiteSpace=wrap;html=1;fontSize=15;" parent="LVs58O9YVb5k__v3N2jz-1" vertex="1">
                    <mxGeometry x="330" y="365" width="150" height="40" as="geometry"/>
                </mxCell>
                <mxCell id="R8-8-l1SJN_ILTi5o2wE-0" value="&amp;lt;type&amp;gt; rate" style="rounded=0;whiteSpace=wrap;html=1;fontSize=15;" parent="LVs58O9YVb5k__v3N2jz-1" vertex="1">
                    <mxGeometry x="220.00244897959186" y="500.00264573991035" width="154.23" height="21.2" as="geometry"/>
                </mxCell>
                <mxCell id="8loewQRvzOFX16BJMFhs-1" value="&lt;b&gt;&lt;font style=&quot;font-size: 22px&quot;&gt;Domain Services:&lt;/font&gt;&lt;/b&gt;" style="text;html=1;strokeColor=none;fillColor=none;align=center;verticalAlign=middle;whiteSpace=wrap;rounded=0;labelBackgroundColor=none;fontSize=15;fontColor=#030303;" parent="LVs58O9YVb5k__v3N2jz-1" vertex="1">
                    <mxGeometry x="110" y="220" width="210" height="30" as="geometry"/>
                </mxCell>
                <mxCell id="8loewQRvzOFX16BJMFhs-2" value="&amp;lt;Interface&amp;gt;&lt;br&gt;ISubscribtionModelStatic" style="rounded=0;whiteSpace=wrap;html=1;fontSize=15;" parent="LVs58O9YVb5k__v3N2jz-1" vertex="1">
                    <mxGeometry x="319" y="420" width="190" height="40" as="geometry"/>
                </mxCell>
                <mxCell id="8loewQRvzOFX16BJMFhs-4" style="edgeStyle=none;html=1;exitX=0;exitY=0.5;exitDx=0;exitDy=0;entryX=1;entryY=0.5;entryDx=0;entryDy=0;fontSize=15;fontColor=#030303;strokeColor=#030303;" parent="LVs58O9YVb5k__v3N2jz-1" source="8loewQRvzOFX16BJMFhs-3" target="APyF7GBWkw_ZN4u4eyRF-0" edge="1">
                    <mxGeometry relative="1" as="geometry">
                        <Array as="points"/>
                    </mxGeometry>
                </mxCell>
                <mxCell id="8loewQRvzOFX16BJMFhs-3" value="&amp;lt;Interface&amp;gt;&lt;br&gt;ISubscribtionRepository" style="rounded=0;whiteSpace=wrap;html=1;fontSize=15;" parent="LVs58O9YVb5k__v3N2jz-1" vertex="1">
                    <mxGeometry x="550" y="365" width="180" height="40" as="geometry"/>
                </mxCell>
                <mxCell id="8loewQRvzOFX16BJMFhs-5" value="&amp;lt;Interface&amp;gt;&lt;br&gt;IEmailSenderService" style="rounded=0;whiteSpace=wrap;html=1;fontSize=15;" parent="LVs58O9YVb5k__v3N2jz-1" vertex="1">
                    <mxGeometry x="550" y="580" width="180" height="40" as="geometry"/>
                </mxCell>
                <mxCell id="w0KFx9JzpML0O4RxQ3yX-2" style="edgeStyle=none;html=1;exitX=0.5;exitY=0;exitDx=0;exitDy=0;entryX=0.5;entryY=1;entryDx=0;entryDy=0;endArrow=classicThin;endFill=1;strokeColor=#000000;" edge="1" parent="LVs58O9YVb5k__v3N2jz-1" source="8loewQRvzOFX16BJMFhs-6" target="8loewQRvzOFX16BJMFhs-5">
                    <mxGeometry relative="1" as="geometry"/>
                </mxCell>
                <mxCell id="8loewQRvzOFX16BJMFhs-6" value="&amp;lt;Interface&amp;gt;&lt;br&gt;IEmailSenderServiceFactory" style="rounded=0;whiteSpace=wrap;html=1;fontSize=15;" parent="LVs58O9YVb5k__v3N2jz-1" vertex="1">
                    <mxGeometry x="535" y="650" width="210" height="40" as="geometry"/>
                </mxCell>
                <mxCell id="8loewQRvzOFX16BJMFhs-9" style="edgeStyle=none;html=1;exitX=0.25;exitY=0;exitDx=0;exitDy=0;entryX=0;entryY=0.5;entryDx=0;entryDy=0;fontSize=15;fontColor=#030303;strokeColor=#030303;endArrow=classicThin;endFill=1;" parent="LVs58O9YVb5k__v3N2jz-1" source="8loewQRvzOFX16BJMFhs-7" target="R8-8-l1SJN_ILTi5o2wE-0" edge="1">
                    <mxGeometry relative="1" as="geometry">
                        <Array as="points">
                            <mxPoint x="165" y="511"/>
                        </Array>
                    </mxGeometry>
                </mxCell>
                <mxCell id="8loewQRvzOFX16BJMFhs-7" value="&amp;lt;Interface&amp;gt;&lt;br&gt;ICurrencyRateService" style="rounded=0;whiteSpace=wrap;html=1;fontSize=15;" parent="LVs58O9YVb5k__v3N2jz-1" vertex="1">
                    <mxGeometry x="120" y="610" width="180" height="40" as="geometry"/>
                </mxCell>
                <mxCell id="w0KFx9JzpML0O4RxQ3yX-0" style="edgeStyle=none;html=1;exitX=0.5;exitY=0;exitDx=0;exitDy=0;entryX=0.5;entryY=1;entryDx=0;entryDy=0;endArrow=classicThin;endFill=1;" edge="1" parent="LVs58O9YVb5k__v3N2jz-1" source="8loewQRvzOFX16BJMFhs-8" target="8loewQRvzOFX16BJMFhs-7">
                    <mxGeometry relative="1" as="geometry"/>
                </mxCell>
                <mxCell id="w0KFx9JzpML0O4RxQ3yX-1" style="edgeStyle=none;html=1;exitX=0.5;exitY=0;exitDx=0;exitDy=0;entryX=0.5;entryY=1;entryDx=0;entryDy=0;endArrow=classicThin;endFill=1;strokeColor=#000000;" edge="1" parent="LVs58O9YVb5k__v3N2jz-1" source="8loewQRvzOFX16BJMFhs-8" target="8loewQRvzOFX16BJMFhs-7">
                    <mxGeometry relative="1" as="geometry"/>
                </mxCell>
                <mxCell id="8loewQRvzOFX16BJMFhs-8" value="&amp;lt;Interface&amp;gt;&lt;br&gt;ICurrencyRateServiceFactory" style="rounded=0;whiteSpace=wrap;html=1;fontSize=15;" parent="LVs58O9YVb5k__v3N2jz-1" vertex="1">
                    <mxGeometry x="105" y="670" width="210" height="40" as="geometry"/>
                </mxCell>
                <mxCell id="w0KFx9JzpML0O4RxQ3yX-6" value="&lt;b&gt;&lt;font style=&quot;font-size: 24px&quot;&gt;Application Services:&lt;/font&gt;&lt;/b&gt;" style="text;html=1;strokeColor=none;fillColor=none;align=center;verticalAlign=middle;whiteSpace=wrap;rounded=0;labelBackgroundColor=none;fontSize=15;fontColor=#030303;" vertex="1" parent="LVs58O9YVb5k__v3N2jz-1">
                    <mxGeometry x="300" y="130" width="300" height="30" as="geometry"/>
                </mxCell>
                <mxCell id="kYMx-5tcmwCGb7-HMbAH-2" style="edgeStyle=none;html=1;exitX=0;exitY=0.5;exitDx=0;exitDy=0;entryX=1;entryY=0.5;entryDx=0;entryDy=0;endArrow=classicThin;endFill=1;strokeColor=#000000;" edge="1" parent="LVs58O9YVb5k__v3N2jz-1" source="kYMx-5tcmwCGb7-HMbAH-0" target="8loewQRvzOFX16BJMFhs-2">
                    <mxGeometry relative="1" as="geometry"/>
                </mxCell>
                <mxCell id="kYMx-5tcmwCGb7-HMbAH-0" value="&amp;lt;Class&amp;gt;&lt;br&gt;Subscribtion" style="rounded=0;whiteSpace=wrap;html=1;fontSize=15;" vertex="1" parent="LVs58O9YVb5k__v3N2jz-1">
                    <mxGeometry x="880" y="420" width="180" height="40" as="geometry"/>
                </mxCell>
                <mxCell id="kYMx-5tcmwCGb7-HMbAH-4" value="&lt;b&gt;File System:&lt;/b&gt;" style="text;html=1;strokeColor=#333333;fillColor=none;align=center;verticalAlign=middle;whiteSpace=wrap;rounded=0;labelBackgroundColor=none;fontSize=15;fontColor=#030303;" vertex="1" parent="LVs58O9YVb5k__v3N2jz-1">
                    <mxGeometry x="1250" y="576.3" width="140" height="33.7" as="geometry"/>
                </mxCell>
                <mxCell id="kYMx-5tcmwCGb7-HMbAH-31" style="edgeStyle=none;html=1;exitX=1;exitY=0.5;exitDx=0;exitDy=0;entryX=0;entryY=0.5;entryDx=0;entryDy=0;fontColor=#000000;endArrow=classicThin;endFill=1;strokeColor=#000000;" edge="1" parent="LVs58O9YVb5k__v3N2jz-1" source="kYMx-5tcmwCGb7-HMbAH-5" target="kYMx-5tcmwCGb7-HMbAH-4">
                    <mxGeometry relative="1" as="geometry"/>
                </mxCell>
                <mxCell id="kYMx-5tcmwCGb7-HMbAH-5" value="&amp;lt;class&amp;gt;&lt;br&gt;FileSystemDB" style="rounded=0;whiteSpace=wrap;html=1;fontSize=15;" vertex="1" parent="LVs58O9YVb5k__v3N2jz-1">
                    <mxGeometry x="970" y="565" width="180" height="40" as="geometry"/>
                </mxCell>
                <mxCell id="kYMx-5tcmwCGb7-HMbAH-7" style="edgeStyle=none;html=1;exitX=0.75;exitY=1;exitDx=0;exitDy=0;endArrow=classicThin;endFill=1;strokeColor=#000000;entryX=0.25;entryY=0;entryDx=0;entryDy=0;" edge="1" parent="LVs58O9YVb5k__v3N2jz-1" source="kYMx-5tcmwCGb7-HMbAH-0" target="kYMx-5tcmwCGb7-HMbAH-5">
                    <mxGeometry relative="1" as="geometry">
                        <mxPoint x="1250" y="250" as="targetPoint"/>
                        <Array as="points"/>
                    </mxGeometry>
                </mxCell>
                <mxCell id="kYMx-5tcmwCGb7-HMbAH-8" value="" style="rounded=0;whiteSpace=wrap;html=1;strokeColor=#333333;strokeWidth=2;fillColor=#F7F7F7;" vertex="1" parent="LVs58O9YVb5k__v3N2jz-1">
                    <mxGeometry x="435" y="850" width="655" height="200" as="geometry"/>
                </mxCell>
                <mxCell id="kYMx-5tcmwCGb7-HMbAH-11" value="&lt;b&gt;emailSenderService:&lt;/b&gt;" style="text;html=1;strokeColor=#1A1A1A;fillColor=none;align=center;verticalAlign=middle;whiteSpace=wrap;rounded=0;labelBackgroundColor=none;fontSize=15;fontColor=#030303;" vertex="1" parent="LVs58O9YVb5k__v3N2jz-1">
                    <mxGeometry x="444" y="860" width="180" height="30" as="geometry"/>
                </mxCell>
                <mxCell id="kYMx-5tcmwCGb7-HMbAH-24" style="edgeStyle=none;html=1;exitX=0.5;exitY=0;exitDx=0;exitDy=0;entryX=0.5;entryY=1;entryDx=0;entryDy=0;fontColor=#000000;endArrow=classicThin;endFill=1;strokeColor=#000000;" edge="1" parent="LVs58O9YVb5k__v3N2jz-1" source="kYMx-5tcmwCGb7-HMbAH-12" target="kYMx-5tcmwCGb7-HMbAH-21">
                    <mxGeometry relative="1" as="geometry"/>
                </mxCell>
                <mxCell id="kYMx-5tcmwCGb7-HMbAH-28" style="edgeStyle=none;html=1;exitX=0.5;exitY=1;exitDx=0;exitDy=0;entryX=0.5;entryY=0;entryDx=0;entryDy=0;fontColor=#000000;endArrow=classicThin;endFill=1;strokeColor=#000000;" edge="1" parent="LVs58O9YVb5k__v3N2jz-1" source="kYMx-5tcmwCGb7-HMbAH-12" target="kYMx-5tcmwCGb7-HMbAH-19">
                    <mxGeometry relative="1" as="geometry"/>
                </mxCell>
                <mxCell id="kYMx-5tcmwCGb7-HMbAH-12" value="&amp;lt;Class&amp;gt;&lt;br&gt;&lt;div style=&quot;font-family: &amp;#34;consolas&amp;#34; , &amp;#34;courier new&amp;#34; , monospace ; font-size: 16px ; line-height: 22px&quot;&gt;&lt;font color=&quot;#f7f7f7&quot;&gt;MailjetEmailService&lt;/font&gt;&lt;/div&gt;" style="rounded=0;whiteSpace=wrap;html=1;fontSize=15;" vertex="1" parent="LVs58O9YVb5k__v3N2jz-1">
                    <mxGeometry x="632" y="950" width="210" height="40" as="geometry"/>
                </mxCell>
                <mxCell id="kYMx-5tcmwCGb7-HMbAH-19" value="&lt;font color=&quot;#000000&quot;&gt;&lt;b&gt;SendGrid SMTP relay&lt;/b&gt;&lt;/font&gt;" style="rounded=0;whiteSpace=wrap;html=1;fontSize=15;fillColor=#FFFFFF;strokeColor=#333333;" vertex="1" parent="LVs58O9YVb5k__v3N2jz-1">
                    <mxGeometry x="630" y="1150" width="210" height="40" as="geometry"/>
                </mxCell>
                <mxCell id="kYMx-5tcmwCGb7-HMbAH-23" style="edgeStyle=none;html=1;exitX=0.5;exitY=0;exitDx=0;exitDy=0;entryX=0.5;entryY=1;entryDx=0;entryDy=0;fontColor=#000000;endArrow=classicThin;endFill=1;strokeColor=#000000;" edge="1" parent="LVs58O9YVb5k__v3N2jz-1" source="kYMx-5tcmwCGb7-HMbAH-20" target="kYMx-5tcmwCGb7-HMbAH-22">
                    <mxGeometry relative="1" as="geometry"/>
                </mxCell>
                <mxCell id="kYMx-5tcmwCGb7-HMbAH-29" style="edgeStyle=none;html=1;exitX=0.5;exitY=1;exitDx=0;exitDy=0;fontColor=#000000;endArrow=classicThin;endFill=1;strokeColor=#000000;entryX=0.5;entryY=0;entryDx=0;entryDy=0;" edge="1" parent="LVs58O9YVb5k__v3N2jz-1" source="kYMx-5tcmwCGb7-HMbAH-20" target="kYMx-5tcmwCGb7-HMbAH-18">
                    <mxGeometry relative="1" as="geometry"/>
                </mxCell>
                <mxCell id="kYMx-5tcmwCGb7-HMbAH-20" value="&amp;lt;Class&amp;gt;&lt;br&gt;&lt;div style=&quot;font-family: &amp;#34;consolas&amp;#34; , &amp;#34;courier new&amp;#34; , monospace ; font-size: 16px ; line-height: 22px&quot;&gt;&lt;font color=&quot;#f7f7f7&quot;&gt;SendGridEmailService&lt;/font&gt;&lt;/div&gt;" style="rounded=0;whiteSpace=wrap;html=1;fontSize=15;" vertex="1" parent="LVs58O9YVb5k__v3N2jz-1">
                    <mxGeometry x="860" y="950" width="210" height="40" as="geometry"/>
                </mxCell>
                <mxCell id="kYMx-5tcmwCGb7-HMbAH-25" style="edgeStyle=none;html=1;exitX=0.5;exitY=0;exitDx=0;exitDy=0;entryX=0.5;entryY=1;entryDx=0;entryDy=0;fontColor=#000000;endArrow=classicThin;endFill=1;strokeColor=#000000;" edge="1" parent="LVs58O9YVb5k__v3N2jz-1" source="kYMx-5tcmwCGb7-HMbAH-21" target="8loewQRvzOFX16BJMFhs-6">
                    <mxGeometry relative="1" as="geometry"/>
                </mxCell>
                <mxCell id="kYMx-5tcmwCGb7-HMbAH-21" value="&amp;lt;class&amp;gt;&lt;br&gt;MailjetEmailServiceFactory" style="rounded=0;whiteSpace=wrap;html=1;fontSize=15;" vertex="1" parent="LVs58O9YVb5k__v3N2jz-1">
                    <mxGeometry x="632" y="890" width="210" height="40" as="geometry"/>
                </mxCell>
                <mxCell id="kYMx-5tcmwCGb7-HMbAH-26" style="edgeStyle=none;html=1;exitX=0.5;exitY=0;exitDx=0;exitDy=0;fontColor=#000000;endArrow=classicThin;endFill=1;strokeColor=#000000;" edge="1" parent="LVs58O9YVb5k__v3N2jz-1" source="kYMx-5tcmwCGb7-HMbAH-22">
                    <mxGeometry relative="1" as="geometry">
                        <mxPoint x="640" y="680" as="targetPoint"/>
                    </mxGeometry>
                </mxCell>
                <mxCell id="kYMx-5tcmwCGb7-HMbAH-22" value="&amp;lt;Class&amp;gt;&lt;br&gt;SendGridEmailServiceFactory" style="rounded=0;whiteSpace=wrap;html=1;fontSize=15;" vertex="1" parent="LVs58O9YVb5k__v3N2jz-1">
                    <mxGeometry x="860" y="890" width="210" height="40" as="geometry"/>
                </mxCell>
                <mxCell id="kYMx-5tcmwCGb7-HMbAH-18" value="&lt;font color=&quot;#000000&quot;&gt;&lt;b&gt;Mailjet API&lt;/b&gt;&lt;/font&gt;" style="rounded=0;whiteSpace=wrap;html=1;fontSize=15;fillColor=#FFFFFF;strokeColor=#333333;" vertex="1" parent="LVs58O9YVb5k__v3N2jz-1">
                    <mxGeometry x="860" y="1150" width="210" height="40" as="geometry"/>
                </mxCell>
                <mxCell id="TIUjAxyo4bYSpSdX8x_9-0" value="&amp;lt;Interface&amp;gt;&lt;br&gt;ISubscribtionModel" style="rounded=0;whiteSpace=wrap;html=1;fontSize=15;" vertex="1" parent="LVs58O9YVb5k__v3N2jz-1">
                    <mxGeometry x="330" y="365" width="150" height="40" as="geometry"/>
                </mxCell>
                <mxCell id="TIUjAxyo4bYSpSdX8x_9-1" value="&amp;lt;Interface&amp;gt;&lt;br&gt;ISubscribtionModelStatic" style="rounded=0;whiteSpace=wrap;html=1;fontSize=15;" vertex="1" parent="LVs58O9YVb5k__v3N2jz-1">
                    <mxGeometry x="319" y="420" width="190" height="40" as="geometry"/>
                </mxCell>
                <mxCell id="TIUjAxyo4bYSpSdX8x_9-2" value="&amp;lt;Interface&amp;gt;&lt;br&gt;ISubscribtionRepository" style="rounded=0;whiteSpace=wrap;html=1;fontSize=15;" vertex="1" parent="LVs58O9YVb5k__v3N2jz-1">
                    <mxGeometry x="550" y="365" width="180" height="40" as="geometry"/>
                </mxCell>
                <mxCell id="TIUjAxyo4bYSpSdX8x_9-3" value="&amp;lt;Interface&amp;gt;&lt;br&gt;IEmailSenderService" style="rounded=0;whiteSpace=wrap;html=1;fontSize=15;" vertex="1" parent="LVs58O9YVb5k__v3N2jz-1">
                    <mxGeometry x="550" y="580" width="180" height="40" as="geometry"/>
                </mxCell>
                <mxCell id="TIUjAxyo4bYSpSdX8x_9-4" value="&amp;lt;Interface&amp;gt;&lt;br&gt;IEmailSenderServiceFactory" style="rounded=0;whiteSpace=wrap;html=1;fontSize=15;" vertex="1" parent="LVs58O9YVb5k__v3N2jz-1">
                    <mxGeometry x="535" y="650" width="210" height="40" as="geometry"/>
                </mxCell>
                <mxCell id="TIUjAxyo4bYSpSdX8x_9-5" value="&amp;lt;Interface&amp;gt;&lt;br&gt;ICurrencyRateServiceFactory" style="rounded=0;whiteSpace=wrap;html=1;fontSize=15;" vertex="1" parent="LVs58O9YVb5k__v3N2jz-1">
                    <mxGeometry x="105" y="670" width="210" height="40" as="geometry"/>
                </mxCell>
                <mxCell id="pGp3EfEjl50-WbtwnHvr-2" style="edgeStyle=none;html=1;exitX=0;exitY=0.5;exitDx=0;exitDy=0;entryX=1;entryY=0.5;entryDx=0;entryDy=0;fontColor=#000000;endArrow=classicThin;endFill=1;strokeColor=#000000;" edge="1" parent="LVs58O9YVb5k__v3N2jz-1" source="pGp3EfEjl50-WbtwnHvr-0" target="TIUjAxyo4bYSpSdX8x_9-2">
                    <mxGeometry relative="1" as="geometry"/>
                </mxCell>
                <mxCell id="pGp3EfEjl50-WbtwnHvr-4" style="edgeStyle=none;html=1;exitX=0.5;exitY=1;exitDx=0;exitDy=0;entryX=0.25;entryY=0;entryDx=0;entryDy=0;fontColor=#000000;endArrow=classicThin;endFill=1;strokeColor=#000000;" edge="1" parent="LVs58O9YVb5k__v3N2jz-1" source="pGp3EfEjl50-WbtwnHvr-0" target="kYMx-5tcmwCGb7-HMbAH-0">
                    <mxGeometry relative="1" as="geometry"/>
                </mxCell>
                <mxCell id="pGp3EfEjl50-WbtwnHvr-0" value="&amp;lt;Class&amp;gt;&lt;br&gt;SubscribtionRepository" style="rounded=0;whiteSpace=wrap;html=1;fontSize=15;" vertex="1" parent="LVs58O9YVb5k__v3N2jz-1">
                    <mxGeometry x="835" y="365" width="180" height="40" as="geometry"/>
                </mxCell>
                <mxCell id="pGp3EfEjl50-WbtwnHvr-6" value="&lt;font size=&quot;1&quot;&gt;&lt;b style=&quot;font-size: 16px&quot;&gt;Subscribtion Repo:&lt;/b&gt;&lt;/font&gt;" style="text;html=1;strokeColor=#4D4D4D;fillColor=none;align=center;verticalAlign=middle;whiteSpace=wrap;rounded=0;labelBackgroundColor=none;fontColor=#000000;" vertex="1" parent="LVs58O9YVb5k__v3N2jz-1">
                    <mxGeometry x="840" y="240" width="170" height="30" as="geometry"/>
                </mxCell>
                <mxCell id="pGp3EfEjl50-WbtwnHvr-52" style="edgeStyle=none;html=1;exitX=0.5;exitY=0;exitDx=0;exitDy=0;entryX=0.5;entryY=1;entryDx=0;entryDy=0;fontSize=24;fontColor=#000000;endArrow=classicThin;endFill=1;strokeColor=#000000;" edge="1" parent="LVs58O9YVb5k__v3N2jz-1" source="pGp3EfEjl50-WbtwnHvr-11" target="TIUjAxyo4bYSpSdX8x_9-5">
                    <mxGeometry relative="1" as="geometry"/>
                </mxCell>
                <mxCell id="pGp3EfEjl50-WbtwnHvr-53" style="edgeStyle=none;html=1;exitX=0.5;exitY=0;exitDx=0;exitDy=0;entryX=0;entryY=0.5;entryDx=0;entryDy=0;fontSize=24;fontColor=#000000;endArrow=classicThin;endFill=1;strokeColor=#000000;" edge="1" parent="LVs58O9YVb5k__v3N2jz-1" source="pGp3EfEjl50-WbtwnHvr-11" target="8loewQRvzOFX16BJMFhs-7">
                    <mxGeometry relative="1" as="geometry"/>
                </mxCell>
                <mxCell id="pGp3EfEjl50-WbtwnHvr-11" value="" style="rounded=0;whiteSpace=wrap;html=1;strokeColor=#333333;strokeWidth=2;fillColor=#F7F7F7;" vertex="1" parent="LVs58O9YVb5k__v3N2jz-1">
                    <mxGeometry x="-570" y="815" width="870" height="190" as="geometry"/>
                </mxCell>
                <mxCell id="pGp3EfEjl50-WbtwnHvr-12" value="&lt;b&gt;CurrencyRateService:&lt;/b&gt;" style="text;html=1;strokeColor=#1A1A1A;fillColor=none;align=center;verticalAlign=middle;whiteSpace=wrap;rounded=0;labelBackgroundColor=none;fontSize=15;fontColor=#030303;" vertex="1" parent="LVs58O9YVb5k__v3N2jz-1">
                    <mxGeometry x="-534" y="830" width="180" height="30" as="geometry"/>
                </mxCell>
                <mxCell id="pGp3EfEjl50-WbtwnHvr-31" style="edgeStyle=none;html=1;exitX=0.5;exitY=0;exitDx=0;exitDy=0;entryX=0.5;entryY=1;entryDx=0;entryDy=0;fontSize=24;fontColor=#000000;endArrow=classicThin;endFill=1;strokeColor=#000000;" edge="1" parent="LVs58O9YVb5k__v3N2jz-1" source="pGp3EfEjl50-WbtwnHvr-13" target="pGp3EfEjl50-WbtwnHvr-15">
                    <mxGeometry relative="1" as="geometry"/>
                </mxCell>
                <mxCell id="pGp3EfEjl50-WbtwnHvr-49" style="edgeStyle=none;html=1;exitX=0.5;exitY=1;exitDx=0;exitDy=0;fontSize=24;fontColor=#000000;endArrow=classicThin;endFill=1;strokeColor=#000000;" edge="1" parent="LVs58O9YVb5k__v3N2jz-1" source="pGp3EfEjl50-WbtwnHvr-13" target="pGp3EfEjl50-WbtwnHvr-39">
                    <mxGeometry relative="1" as="geometry"/>
                </mxCell>
                <mxCell id="pGp3EfEjl50-WbtwnHvr-13" value="&amp;lt;Class&amp;gt;&lt;br&gt;&lt;div style=&quot;font-family: &amp;#34;consolas&amp;#34; , &amp;#34;courier new&amp;#34; , monospace ; font-size: 16px ; line-height: 22px&quot;&gt;&lt;font color=&quot;#f7f7f7&quot;&gt;CoinbaseService&lt;/font&gt;&lt;/div&gt;" style="rounded=0;whiteSpace=wrap;html=1;fontSize=15;" vertex="1" parent="LVs58O9YVb5k__v3N2jz-1">
                    <mxGeometry x="-120" y="940" width="170" height="40" as="geometry"/>
                </mxCell>
                <mxCell id="pGp3EfEjl50-WbtwnHvr-32" style="edgeStyle=none;html=1;exitX=0.5;exitY=0;exitDx=0;exitDy=0;entryX=0.5;entryY=1;entryDx=0;entryDy=0;fontSize=24;fontColor=#000000;endArrow=classicThin;endFill=1;strokeColor=#000000;" edge="1" parent="LVs58O9YVb5k__v3N2jz-1" source="pGp3EfEjl50-WbtwnHvr-14" target="pGp3EfEjl50-WbtwnHvr-16">
                    <mxGeometry relative="1" as="geometry"/>
                </mxCell>
                <mxCell id="pGp3EfEjl50-WbtwnHvr-50" style="edgeStyle=none;html=1;exitX=0.5;exitY=1;exitDx=0;exitDy=0;fontSize=24;fontColor=#000000;endArrow=classicThin;endFill=1;strokeColor=#000000;" edge="1" parent="LVs58O9YVb5k__v3N2jz-1" source="pGp3EfEjl50-WbtwnHvr-14" target="pGp3EfEjl50-WbtwnHvr-40">
                    <mxGeometry relative="1" as="geometry"/>
                </mxCell>
                <mxCell id="pGp3EfEjl50-WbtwnHvr-14" value="&amp;lt;Class&amp;gt;&lt;br&gt;&lt;div style=&quot;font-family: &amp;#34;consolas&amp;#34; , &amp;#34;courier new&amp;#34; , monospace ; font-size: 16px ; line-height: 22px&quot;&gt;&lt;font color=&quot;#f7f7f7&quot;&gt;APILayerService&lt;/font&gt;&lt;/div&gt;" style="rounded=0;whiteSpace=wrap;html=1;fontSize=15;" vertex="1" parent="LVs58O9YVb5k__v3N2jz-1">
                    <mxGeometry x="60.000000000000014" y="940" width="210" height="40" as="geometry"/>
                </mxCell>
                <mxCell id="pGp3EfEjl50-WbtwnHvr-15" value="&amp;lt;class&amp;gt;&lt;br&gt;CoinbaseFactory" style="rounded=0;whiteSpace=wrap;html=1;fontSize=15;" vertex="1" parent="LVs58O9YVb5k__v3N2jz-1">
                    <mxGeometry x="-120" y="880" width="170" height="40" as="geometry"/>
                </mxCell>
                <mxCell id="pGp3EfEjl50-WbtwnHvr-16" value="&amp;lt;class&amp;gt;&lt;br&gt;APILayerFactory" style="rounded=0;whiteSpace=wrap;html=1;fontSize=15;" vertex="1" parent="LVs58O9YVb5k__v3N2jz-1">
                    <mxGeometry x="60.000000000000014" y="880" width="210" height="40" as="geometry"/>
                </mxCell>
                <mxCell id="pGp3EfEjl50-WbtwnHvr-30" style="edgeStyle=none;html=1;exitX=0.5;exitY=0;exitDx=0;exitDy=0;entryX=0.5;entryY=1;entryDx=0;entryDy=0;fontSize=24;fontColor=#000000;endArrow=classicThin;endFill=1;strokeColor=#000000;" edge="1" parent="LVs58O9YVb5k__v3N2jz-1" source="pGp3EfEjl50-WbtwnHvr-17" target="pGp3EfEjl50-WbtwnHvr-18">
                    <mxGeometry relative="1" as="geometry"/>
                </mxCell>
                <mxCell id="pGp3EfEjl50-WbtwnHvr-48" style="edgeStyle=none;html=1;exitX=0.5;exitY=1;exitDx=0;exitDy=0;fontSize=24;fontColor=#000000;endArrow=classicThin;endFill=1;strokeColor=#000000;" edge="1" parent="LVs58O9YVb5k__v3N2jz-1" source="pGp3EfEjl50-WbtwnHvr-17" target="pGp3EfEjl50-WbtwnHvr-38">
                    <mxGeometry relative="1" as="geometry"/>
                </mxCell>
                <mxCell id="pGp3EfEjl50-WbtwnHvr-17" value="&amp;lt;Class&amp;gt;&lt;br&gt;&lt;div style=&quot;font-family: &amp;#34;consolas&amp;#34; , &amp;#34;courier new&amp;#34; , monospace ; font-size: 16px ; line-height: 22px&quot;&gt;CoinAPIService&lt;/div&gt;" style="rounded=0;whiteSpace=wrap;html=1;fontSize=15;" vertex="1" parent="LVs58O9YVb5k__v3N2jz-1">
                    <mxGeometry x="-300" y="940" width="160" height="40" as="geometry"/>
                </mxCell>
                <mxCell id="pGp3EfEjl50-WbtwnHvr-18" value="&amp;lt;class&amp;gt;&lt;br&gt;CoinAPIFactory" style="rounded=0;whiteSpace=wrap;html=1;fontSize=15;" vertex="1" parent="LVs58O9YVb5k__v3N2jz-1">
                    <mxGeometry x="-300" y="880" width="160" height="40" as="geometry"/>
                </mxCell>
                <mxCell id="pGp3EfEjl50-WbtwnHvr-29" style="edgeStyle=none;html=1;exitX=0.5;exitY=0;exitDx=0;exitDy=0;entryX=0.5;entryY=1;entryDx=0;entryDy=0;fontSize=24;fontColor=#000000;endArrow=classicThin;endFill=1;strokeColor=#000000;" edge="1" parent="LVs58O9YVb5k__v3N2jz-1" source="pGp3EfEjl50-WbtwnHvr-19" target="pGp3EfEjl50-WbtwnHvr-24">
                    <mxGeometry relative="1" as="geometry"/>
                </mxCell>
                <mxCell id="pGp3EfEjl50-WbtwnHvr-47" style="edgeStyle=none;html=1;exitX=0.5;exitY=1;exitDx=0;exitDy=0;fontSize=24;fontColor=#000000;endArrow=classicThin;endFill=1;strokeColor=#000000;" edge="1" parent="LVs58O9YVb5k__v3N2jz-1" source="pGp3EfEjl50-WbtwnHvr-19" target="pGp3EfEjl50-WbtwnHvr-37">
                    <mxGeometry relative="1" as="geometry"/>
                </mxCell>
                <mxCell id="pGp3EfEjl50-WbtwnHvr-19" value="&amp;lt;Class&amp;gt;&lt;br&gt;&lt;div style=&quot;font-family: &amp;#34;consolas&amp;#34; , &amp;#34;courier new&amp;#34; , monospace ; font-size: 16px ; line-height: 22px&quot;&gt;&lt;font color=&quot;#f7f7f7&quot;&gt;CoinMarketCapService&lt;/font&gt;&lt;/div&gt;" style="rounded=0;whiteSpace=wrap;html=1;fontSize=15;" vertex="1" parent="LVs58O9YVb5k__v3N2jz-1">
                    <mxGeometry x="-530" y="940" width="210" height="40" as="geometry"/>
                </mxCell>
                <mxCell id="pGp3EfEjl50-WbtwnHvr-24" value="&amp;lt;Class&amp;gt;&lt;br&gt;&lt;div style=&quot;font-family: &amp;#34;consolas&amp;#34; , &amp;#34;courier new&amp;#34; , monospace ; font-size: 16px ; line-height: 22px&quot;&gt;&lt;font color=&quot;#f7f7f7&quot;&gt;CoinMarketCapFactory&lt;/font&gt;&lt;/div&gt;" style="rounded=0;whiteSpace=wrap;html=1;fontSize=15;" vertex="1" parent="LVs58O9YVb5k__v3N2jz-1">
                    <mxGeometry x="-530" y="880" width="210" height="40" as="geometry"/>
                </mxCell>
                <mxCell id="pGp3EfEjl50-WbtwnHvr-37" value="&lt;font color=&quot;#000000&quot;&gt;&lt;b&gt;CoinMarketCap API&lt;/b&gt;&lt;/font&gt;" style="rounded=0;whiteSpace=wrap;html=1;fontSize=15;fillColor=#FFFFFF;strokeColor=#333333;" vertex="1" parent="LVs58O9YVb5k__v3N2jz-1">
                    <mxGeometry x="-545" y="1160" width="210" height="40" as="geometry"/>
                </mxCell>
                <mxCell id="pGp3EfEjl50-WbtwnHvr-38" value="&lt;font color=&quot;#000000&quot;&gt;&lt;b&gt;CoinAPI API&lt;/b&gt;&lt;/font&gt;" style="rounded=0;whiteSpace=wrap;html=1;fontSize=15;fillColor=#FFFFFF;strokeColor=#333333;" vertex="1" parent="LVs58O9YVb5k__v3N2jz-1">
                    <mxGeometry x="-310" y="1160" width="210" height="40" as="geometry"/>
                </mxCell>
                <mxCell id="pGp3EfEjl50-WbtwnHvr-39" value="&lt;font color=&quot;#000000&quot;&gt;&lt;b&gt;Coinbase API&lt;/b&gt;&lt;/font&gt;" style="rounded=0;whiteSpace=wrap;html=1;fontSize=15;fillColor=#FFFFFF;strokeColor=#333333;" vertex="1" parent="LVs58O9YVb5k__v3N2jz-1">
                    <mxGeometry x="-83.76999999999998" y="1160" width="210" height="40" as="geometry"/>
                </mxCell>
                <mxCell id="pGp3EfEjl50-WbtwnHvr-40" value="&lt;font color=&quot;#000000&quot;&gt;&lt;b&gt;APILayer API&lt;/b&gt;&lt;/font&gt;" style="rounded=0;whiteSpace=wrap;html=1;fontSize=15;fillColor=#FFFFFF;strokeColor=#333333;" vertex="1" parent="LVs58O9YVb5k__v3N2jz-1">
                    <mxGeometry x="144.23" y="1160" width="210" height="40" as="geometry"/>
                </mxCell>
                <mxCell id="pGp3EfEjl50-WbtwnHvr-43" style="edgeStyle=none;html=1;exitX=0.5;exitY=1;exitDx=0;exitDy=0;entryX=0.5;entryY=0;entryDx=0;entryDy=0;fontSize=24;fontColor=#000000;endArrow=classicThin;endFill=1;strokeColor=#000000;" edge="1" parent="LVs58O9YVb5k__v3N2jz-1" source="pGp3EfEjl50-WbtwnHvr-41" target="pGp3EfEjl50-WbtwnHvr-42">
                    <mxGeometry relative="1" as="geometry"/>
                </mxCell>
                <mxCell id="pGp3EfEjl50-WbtwnHvr-46" style="edgeStyle=none;html=1;exitX=1;exitY=0.5;exitDx=0;exitDy=0;fontSize=24;fontColor=#000000;endArrow=classicThin;endFill=1;strokeColor=#000000;" edge="1" parent="LVs58O9YVb5k__v3N2jz-1" source="pGp3EfEjl50-WbtwnHvr-41">
                    <mxGeometry relative="1" as="geometry">
                        <mxPoint x="120" y="630" as="targetPoint"/>
                    </mxGeometry>
                </mxCell>
                <mxCell id="pGp3EfEjl50-WbtwnHvr-41" value="&lt;b&gt;CurrencyRateService Logger:&lt;/b&gt;" style="text;html=1;strokeColor=#1A1A1A;fillColor=#FFFFFF;align=center;verticalAlign=middle;whiteSpace=wrap;rounded=0;labelBackgroundColor=none;fontSize=15;fontColor=#030303;" vertex="1" parent="LVs58O9YVb5k__v3N2jz-1">
                    <mxGeometry x="-580" y="565" width="180" height="70" as="geometry"/>
                </mxCell>
                <mxCell id="pGp3EfEjl50-WbtwnHvr-44" style="edgeStyle=none;html=1;exitX=0.5;exitY=1;exitDx=0;exitDy=0;entryX=0.25;entryY=0;entryDx=0;entryDy=0;fontSize=24;fontColor=#000000;endArrow=classicThin;endFill=1;strokeColor=#000000;" edge="1" parent="LVs58O9YVb5k__v3N2jz-1" source="pGp3EfEjl50-WbtwnHvr-42" target="pGp3EfEjl50-WbtwnHvr-12">
                    <mxGeometry relative="1" as="geometry"/>
                </mxCell>
                <mxCell id="pGp3EfEjl50-WbtwnHvr-45" style="edgeStyle=none;html=1;exitX=1;exitY=0.5;exitDx=0;exitDy=0;entryX=0;entryY=0.5;entryDx=0;entryDy=0;fontSize=24;fontColor=#000000;endArrow=classicThin;endFill=1;strokeColor=#000000;" edge="1" parent="LVs58O9YVb5k__v3N2jz-1" source="pGp3EfEjl50-WbtwnHvr-42" target="8loewQRvzOFX16BJMFhs-7">
                    <mxGeometry relative="1" as="geometry"/>
                </mxCell>
                <mxCell id="pGp3EfEjl50-WbtwnHvr-42" value="&lt;b&gt;CurrencyRate Caching Proxy:&lt;/b&gt;" style="text;html=1;strokeColor=#1A1A1A;fillColor=#FFFFFF;align=center;verticalAlign=middle;whiteSpace=wrap;rounded=0;labelBackgroundColor=none;fontSize=15;fontColor=#030303;" vertex="1" parent="LVs58O9YVb5k__v3N2jz-1">
                    <mxGeometry x="-580" y="660" width="180" height="50" as="geometry"/>
                </mxCell>
                <mxCell id="pGp3EfEjl50-WbtwnHvr-54" value="" style="rounded=0;whiteSpace=wrap;html=1;strokeColor=#333333;strokeWidth=2;fillColor=#F7F7F7;" vertex="1" parent="LVs58O9YVb5k__v3N2jz-1">
                    <mxGeometry x="-610" y="-200" width="800" height="250" as="geometry"/>
                </mxCell>
                <mxCell id="pGp3EfEjl50-WbtwnHvr-55" value="&lt;b&gt;&lt;font style=&quot;font-size: 24px&quot;&gt;Presentation layer:&lt;/font&gt;&lt;/b&gt;" style="text;html=1;strokeColor=none;fillColor=none;align=center;verticalAlign=middle;whiteSpace=wrap;rounded=0;labelBackgroundColor=none;fontSize=15;fontColor=#030303;" vertex="1" parent="LVs58O9YVb5k__v3N2jz-1">
                    <mxGeometry x="-620" y="-180" width="300" height="30" as="geometry"/>
                </mxCell>
                <mxCell id="hDbm29PS_mauPwqaf9kC-6" style="edgeStyle=none;html=1;exitX=1;exitY=0.5;exitDx=0;exitDy=0;fontSize=34;fontColor=#000000;endArrow=classicThin;endFill=1;strokeColor=#000000;strokeWidth=1;" edge="1" parent="LVs58O9YVb5k__v3N2jz-1" source="VzDpVa1flMHTPpvMLoxs-0">
                    <mxGeometry relative="1" as="geometry">
                        <mxPoint x="-119" y="-25" as="targetPoint"/>
                    </mxGeometry>
                </mxCell>
                <mxCell id="hDbm29PS_mauPwqaf9kC-7" style="edgeStyle=none;html=1;exitX=1;exitY=1;exitDx=0;exitDy=0;entryX=0;entryY=1;entryDx=0;entryDy=0;fontSize=34;fontColor=#000000;endArrow=classicThin;endFill=1;strokeColor=#b85450;strokeWidth=4;fillColor=#f8cecc;" edge="1" parent="LVs58O9YVb5k__v3N2jz-1" source="VzDpVa1flMHTPpvMLoxs-0" target="VzDpVa1flMHTPpvMLoxs-6">
                    <mxGeometry relative="1" as="geometry"/>
                </mxCell>
                <mxCell id="VzDpVa1flMHTPpvMLoxs-0" value="&lt;b&gt;app&lt;/b&gt;" style="text;html=1;strokeColor=#1A1A1A;fillColor=none;align=center;verticalAlign=middle;whiteSpace=wrap;rounded=0;labelBackgroundColor=none;fontSize=15;fontColor=#030303;" vertex="1" parent="LVs58O9YVb5k__v3N2jz-1">
                    <mxGeometry x="-300" y="-60" width="180" height="70" as="geometry"/>
                </mxCell>
                <mxCell id="hDbm29PS_mauPwqaf9kC-3" style="edgeStyle=none;html=1;exitX=0.5;exitY=0;exitDx=0;exitDy=0;entryX=0.5;entryY=1;entryDx=0;entryDy=0;fontSize=34;fontColor=#000000;endArrow=none;endFill=0;strokeColor=#000000;strokeWidth=1;startArrow=classicThin;startFill=1;" edge="1" parent="LVs58O9YVb5k__v3N2jz-1" source="VzDpVa1flMHTPpvMLoxs-1" target="VzDpVa1flMHTPpvMLoxs-8">
                    <mxGeometry relative="1" as="geometry"/>
                </mxCell>
                <mxCell id="hDbm29PS_mauPwqaf9kC-4" style="edgeStyle=none;html=1;exitX=0.5;exitY=0;exitDx=0;exitDy=0;entryX=0.75;entryY=1;entryDx=0;entryDy=0;fontSize=34;fontColor=#000000;endArrow=none;endFill=0;strokeColor=#000000;strokeWidth=1;startArrow=classic;startFill=1;" edge="1" parent="LVs58O9YVb5k__v3N2jz-1" source="VzDpVa1flMHTPpvMLoxs-1" target="VzDpVa1flMHTPpvMLoxs-2">
                    <mxGeometry relative="1" as="geometry"/>
                </mxCell>
                <mxCell id="hDbm29PS_mauPwqaf9kC-5" style="edgeStyle=none;html=1;exitX=0.5;exitY=0;exitDx=0;exitDy=0;entryX=0.75;entryY=1;entryDx=0;entryDy=0;fontSize=34;fontColor=#000000;endArrow=none;endFill=0;strokeColor=#000000;strokeWidth=1;startArrow=classicThin;startFill=1;" edge="1" parent="LVs58O9YVb5k__v3N2jz-1" source="VzDpVa1flMHTPpvMLoxs-1" target="VzDpVa1flMHTPpvMLoxs-3">
                    <mxGeometry relative="1" as="geometry"/>
                </mxCell>
                <mxCell id="VzDpVa1flMHTPpvMLoxs-1" value="&lt;div style=&quot;line-height: 22px&quot;&gt;&lt;font color=&quot;#000000&quot; face=&quot;consolas, courier new, monospace&quot;&gt;&lt;span style=&quot;font-size: 16px&quot;&gt;HttpResponseMessage&lt;/span&gt;&lt;/font&gt;&lt;br&gt;&lt;/div&gt;" style="text;html=1;strokeColor=#1A1A1A;fillColor=#FFFFFF;align=center;verticalAlign=middle;whiteSpace=wrap;rounded=0;labelBackgroundColor=none;fontSize=15;fontColor=#030303;" vertex="1" parent="LVs58O9YVb5k__v3N2jz-1">
                    <mxGeometry x="-229.99999999999997" y="260" width="180" height="70" as="geometry"/>
                </mxCell>
                <mxCell id="VzDpVa1flMHTPpvMLoxs-10" style="edgeStyle=none;html=1;exitX=0.5;exitY=1;exitDx=0;exitDy=0;fontSize=18;fontColor=#000000;endArrow=classicThin;endFill=1;strokeColor=#b85450;fillColor=#f8cecc;entryX=0.5;entryY=0;entryDx=0;entryDy=0;strokeWidth=4;" edge="1" parent="LVs58O9YVb5k__v3N2jz-1" source="VzDpVa1flMHTPpvMLoxs-2" target="kYMx-5tcmwCGb7-HMbAH-11">
                    <mxGeometry relative="1" as="geometry">
                        <mxPoint x="20" y="940" as="targetPoint"/>
                        <Array as="points">
                            <mxPoint x="-260" y="780"/>
                            <mxPoint x="534" y="790"/>
                        </Array>
                    </mxGeometry>
                </mxCell>
                <mxCell id="VzDpVa1flMHTPpvMLoxs-16" style="edgeStyle=none;html=1;exitX=0.5;exitY=0;exitDx=0;exitDy=0;fontSize=18;fontColor=#000000;endArrow=classicThin;endFill=1;strokeColor=#000000;strokeWidth=1;" edge="1" parent="LVs58O9YVb5k__v3N2jz-1" source="VzDpVa1flMHTPpvMLoxs-2">
                    <mxGeometry relative="1" as="geometry">
                        <mxPoint y="10" as="targetPoint"/>
                    </mxGeometry>
                </mxCell>
                <mxCell id="VzDpVa1flMHTPpvMLoxs-2" value="&lt;div style=&quot;font-family: &amp;#34;consolas&amp;#34; , &amp;#34;courier new&amp;#34; , monospace ; line-height: 22px&quot;&gt;&lt;div style=&quot;font-family: &amp;#34;consolas&amp;#34; , &amp;#34;courier new&amp;#34; , monospace ; line-height: 22px&quot;&gt;&lt;font color=&quot;#000000&quot; style=&quot;font-size: 18px&quot;&gt;sendRateEmailsHandler&lt;/font&gt;&lt;/div&gt;&lt;div style=&quot;font-family: &amp;#34;consolas&amp;#34; , &amp;#34;courier new&amp;#34; , monospace ; line-height: 22px&quot;&gt;&lt;font color=&quot;#000000&quot;&gt;&lt;span style=&quot;font-size: 18px&quot;&gt;Controller&lt;/span&gt;&lt;/font&gt;&lt;/div&gt;&lt;/div&gt;" style="text;html=1;strokeColor=#1A1A1A;fillColor=#FFFFFF;align=center;verticalAlign=middle;whiteSpace=wrap;rounded=0;labelBackgroundColor=none;fontSize=15;fontColor=#030303;" vertex="1" parent="LVs58O9YVb5k__v3N2jz-1">
                    <mxGeometry x="-380" y="130" width="230" height="70" as="geometry"/>
                </mxCell>
                <mxCell id="VzDpVa1flMHTPpvMLoxs-9" style="edgeStyle=none;html=1;exitX=0.5;exitY=1;exitDx=0;exitDy=0;entryX=0.5;entryY=0;entryDx=0;entryDy=0;fontSize=18;fontColor=#000000;endArrow=classicThin;endFill=1;strokeColor=#b85450;fillColor=#f8cecc;strokeWidth=4;" edge="1" parent="LVs58O9YVb5k__v3N2jz-1" source="VzDpVa1flMHTPpvMLoxs-3" target="pGp3EfEjl50-WbtwnHvr-41">
                    <mxGeometry relative="1" as="geometry"/>
                </mxCell>
                <mxCell id="VzDpVa1flMHTPpvMLoxs-17" style="edgeStyle=none;html=1;exitX=0.5;exitY=0;exitDx=0;exitDy=0;fontSize=18;fontColor=#000000;endArrow=classicThin;endFill=1;strokeColor=#000000;strokeWidth=1;" edge="1" parent="LVs58O9YVb5k__v3N2jz-1" source="VzDpVa1flMHTPpvMLoxs-3">
                    <mxGeometry relative="1" as="geometry">
                        <mxPoint y="10" as="targetPoint"/>
                    </mxGeometry>
                </mxCell>
                <mxCell id="VzDpVa1flMHTPpvMLoxs-3" value="&lt;div style=&quot;font-family: &amp;#34;consolas&amp;#34; , &amp;#34;courier new&amp;#34; , monospace ; font-size: 16px ; line-height: 22px&quot;&gt;&lt;font color=&quot;#000000&quot;&gt;getCurrencyRate Controller&lt;/font&gt;&lt;/div&gt;" style="text;html=1;strokeColor=#1A1A1A;fillColor=#FFFFFF;align=center;verticalAlign=middle;whiteSpace=wrap;rounded=0;labelBackgroundColor=none;fontSize=15;fontColor=#030303;" vertex="1" parent="LVs58O9YVb5k__v3N2jz-1">
                    <mxGeometry x="-590" y="130" width="180" height="70" as="geometry"/>
                </mxCell>
                <mxCell id="VzDpVa1flMHTPpvMLoxs-5" style="edgeStyle=none;html=1;exitX=0.5;exitY=1;exitDx=0;exitDy=0;fontSize=24;fontColor=#000000;endArrow=classicThin;endFill=1;strokeColor=#b85450;fillColor=#f8cecc;strokeWidth=4;" edge="1" parent="LVs58O9YVb5k__v3N2jz-1" source="VzDpVa1flMHTPpvMLoxs-4" target="VzDpVa1flMHTPpvMLoxs-0">
                    <mxGeometry relative="1" as="geometry"/>
                </mxCell>
                <mxCell id="VzDpVa1flMHTPpvMLoxs-4" value="HTTP API&amp;nbsp;" style="rounded=1;whiteSpace=wrap;html=1;labelBackgroundColor=none;fontSize=24;fontColor=#000000;strokeColor=#4D4D4D;strokeWidth=2;fillColor=#FFFFFF;" vertex="1" parent="LVs58O9YVb5k__v3N2jz-1">
                    <mxGeometry x="-390" y="-310" width="360" height="60" as="geometry"/>
                </mxCell>
                <mxCell id="VzDpVa1flMHTPpvMLoxs-14" style="edgeStyle=none;html=1;exitX=0;exitY=0.5;exitDx=0;exitDy=0;entryX=1;entryY=0.5;entryDx=0;entryDy=0;fontSize=18;fontColor=#000000;endArrow=classicThin;endFill=1;strokeColor=#000000;strokeWidth=1;" edge="1" parent="LVs58O9YVb5k__v3N2jz-1" source="VzDpVa1flMHTPpvMLoxs-6" target="VzDpVa1flMHTPpvMLoxs-0">
                    <mxGeometry relative="1" as="geometry"/>
                </mxCell>
                <mxCell id="hDbm29PS_mauPwqaf9kC-8" style="edgeStyle=none;html=1;exitX=0.75;exitY=1;exitDx=0;exitDy=0;entryX=0.75;entryY=0;entryDx=0;entryDy=0;fontSize=34;fontColor=#000000;endArrow=classicThin;endFill=1;strokeColor=#b85450;strokeWidth=4;fillColor=#f8cecc;" edge="1" parent="LVs58O9YVb5k__v3N2jz-1" source="VzDpVa1flMHTPpvMLoxs-6" target="VzDpVa1flMHTPpvMLoxs-8">
                    <mxGeometry relative="1" as="geometry"/>
                </mxCell>
                <mxCell id="hDbm29PS_mauPwqaf9kC-9" style="edgeStyle=none;html=1;entryX=0.75;entryY=0;entryDx=0;entryDy=0;fontSize=34;fontColor=#000000;endArrow=classicThin;endFill=1;strokeColor=#b85450;strokeWidth=4;fillColor=#f8cecc;exitX=0.75;exitY=1;exitDx=0;exitDy=0;" edge="1" parent="LVs58O9YVb5k__v3N2jz-1" source="VzDpVa1flMHTPpvMLoxs-6" target="VzDpVa1flMHTPpvMLoxs-2">
                    <mxGeometry relative="1" as="geometry">
                        <mxPoint x="50" y="20" as="sourcePoint"/>
                    </mxGeometry>
                </mxCell>
                <mxCell id="hDbm29PS_mauPwqaf9kC-10" style="edgeStyle=none;html=1;exitX=0.75;exitY=1;exitDx=0;exitDy=0;entryX=0.75;entryY=0;entryDx=0;entryDy=0;fontSize=34;fontColor=#000000;endArrow=classicThin;endFill=1;strokeColor=#b85450;strokeWidth=4;fillColor=#f8cecc;" edge="1" parent="LVs58O9YVb5k__v3N2jz-1" source="VzDpVa1flMHTPpvMLoxs-6" target="VzDpVa1flMHTPpvMLoxs-3">
                    <mxGeometry relative="1" as="geometry"/>
                </mxCell>
                <mxCell id="VzDpVa1flMHTPpvMLoxs-6" value="&lt;div style=&quot;line-height: 22px&quot;&gt;&lt;font color=&quot;#000000&quot; face=&quot;consolas, courier new, monospace&quot;&gt;&lt;span style=&quot;font-size: 16px&quot;&gt;routing (via plugin)&lt;/span&gt;&lt;/font&gt;&lt;br&gt;&lt;/div&gt;" style="text;html=1;strokeColor=#1A1A1A;fillColor=none;align=center;verticalAlign=middle;whiteSpace=wrap;rounded=0;labelBackgroundColor=none;fontSize=15;fontColor=#030303;" vertex="1" parent="LVs58O9YVb5k__v3N2jz-1">
                    <mxGeometry x="-90.00000000000001" y="-60" width="180" height="70" as="geometry"/>
                </mxCell>
                <mxCell id="VzDpVa1flMHTPpvMLoxs-11" style="edgeStyle=none;html=1;exitX=1;exitY=0.75;exitDx=0;exitDy=0;entryX=0.5;entryY=0;entryDx=0;entryDy=0;fontSize=18;fontColor=#000000;endArrow=classicThin;endFill=1;strokeColor=#b85450;strokeWidth=4;fillColor=#f8cecc;" edge="1" parent="LVs58O9YVb5k__v3N2jz-1" source="VzDpVa1flMHTPpvMLoxs-8" target="pGp3EfEjl50-WbtwnHvr-6">
                    <mxGeometry relative="1" as="geometry">
                        <Array as="points">
                            <mxPoint x="925" y="183"/>
                        </Array>
                    </mxGeometry>
                </mxCell>
                <mxCell id="VzDpVa1flMHTPpvMLoxs-15" style="edgeStyle=none;html=1;exitX=0.5;exitY=0;exitDx=0;exitDy=0;entryX=0.5;entryY=1;entryDx=0;entryDy=0;fontSize=18;fontColor=#000000;endArrow=classicThin;endFill=1;strokeColor=#000000;strokeWidth=1;" edge="1" parent="LVs58O9YVb5k__v3N2jz-1" source="VzDpVa1flMHTPpvMLoxs-8" target="VzDpVa1flMHTPpvMLoxs-6">
                    <mxGeometry relative="1" as="geometry"/>
                </mxCell>
                <mxCell id="VzDpVa1flMHTPpvMLoxs-8" value="&lt;div style=&quot;font-family: &amp;#34;consolas&amp;#34; , &amp;#34;courier new&amp;#34; , monospace ; line-height: 22px&quot;&gt;&lt;div style=&quot;font-family: &amp;#34;consolas&amp;#34; , &amp;#34;courier new&amp;#34; , monospace ; line-height: 22px&quot;&gt;&lt;div style=&quot;font-family: &amp;#34;consolas&amp;#34; , &amp;#34;courier new&amp;#34; , monospace ; font-size: 16px ; line-height: 22px&quot;&gt;&lt;font color=&quot;#000000&quot;&gt;subscribeEmail&lt;/font&gt;&lt;/div&gt;&lt;/div&gt;&lt;div style=&quot;font-family: &amp;#34;consolas&amp;#34; , &amp;#34;courier new&amp;#34; , monospace ; line-height: 22px&quot;&gt;&lt;font color=&quot;#000000&quot;&gt;&lt;span style=&quot;font-size: 18px&quot;&gt;Controller&lt;/span&gt;&lt;/font&gt;&lt;/div&gt;&lt;/div&gt;" style="text;html=1;strokeColor=#36393d;fillColor=#FFFFFF;align=center;verticalAlign=middle;whiteSpace=wrap;rounded=0;labelBackgroundColor=none;fontSize=15;" vertex="1" parent="LVs58O9YVb5k__v3N2jz-1">
                    <mxGeometry x="-125" y="130" width="230" height="70" as="geometry"/>
                </mxCell>
                <mxCell id="VzDpVa1flMHTPpvMLoxs-13" style="edgeStyle=none;html=1;exitX=1;exitY=0.5;exitDx=0;exitDy=0;fontSize=18;fontColor=#000000;endArrow=classicThin;endFill=1;strokeColor=#000000;strokeWidth=1;" edge="1" parent="LVs58O9YVb5k__v3N2jz-1" source="VzDpVa1flMHTPpvMLoxs-12" target="VzDpVa1flMHTPpvMLoxs-0">
                    <mxGeometry relative="1" as="geometry"/>
                </mxCell>
                <mxCell id="VzDpVa1flMHTPpvMLoxs-12" value="&lt;b&gt;Fastify Framework&lt;/b&gt;" style="text;html=1;strokeColor=#1A1A1A;fillColor=none;align=center;verticalAlign=middle;whiteSpace=wrap;rounded=0;labelBackgroundColor=none;fontSize=15;fontColor=#030303;" vertex="1" parent="LVs58O9YVb5k__v3N2jz-1">
                    <mxGeometry x="-560" y="-60" width="180" height="70" as="geometry"/>
                </mxCell>
                <mxCell id="hDbm29PS_mauPwqaf9kC-0" value="&lt;font style=&quot;font-size: 34px ; background-color: rgb(250 , 250 , 250)&quot; color=&quot;#000000&quot;&gt;GSES2 BTC application architechture:&lt;br&gt;&lt;br&gt;&lt;br&gt;&lt;/font&gt;" style="text;html=1;strokeColor=none;fillColor=#FAFAFA;align=center;verticalAlign=middle;whiteSpace=wrap;rounded=0;" vertex="1" parent="LVs58O9YVb5k__v3N2jz-1">
                    <mxGeometry x="396.23" y="-210" width="445.77" height="235" as="geometry"/>
                </mxCell>
                <mxCell id="hDbm29PS_mauPwqaf9kC-2" style="edgeStyle=none;html=1;exitX=0;exitY=1;exitDx=0;exitDy=0;entryX=1;entryY=0;entryDx=0;entryDy=0;fontSize=34;fontColor=#000000;endArrow=classicThin;endFill=1;strokeColor=#000000;strokeWidth=1;" edge="1" parent="LVs58O9YVb5k__v3N2jz-1" source="hDbm29PS_mauPwqaf9kC-1" target="VzDpVa1flMHTPpvMLoxs-0">
                    <mxGeometry relative="1" as="geometry"/>
                </mxCell>
                <mxCell id="hDbm29PS_mauPwqaf9kC-1" value="&lt;b&gt;plugins:&lt;/b&gt;" style="text;html=1;strokeColor=#1A1A1A;fillColor=none;align=center;verticalAlign=middle;whiteSpace=wrap;rounded=0;labelBackgroundColor=none;fontSize=15;fontColor=#030303;" vertex="1" parent="LVs58O9YVb5k__v3N2jz-1">
                    <mxGeometry x="-80" y="-175" width="180" height="70" as="geometry"/>
                </mxCell>
                <mxCell id="hDbm29PS_mauPwqaf9kC-11" value="" style="endArrow=classic;html=1;fontSize=34;fontColor=#000000;strokeColor=#b85450;strokeWidth=4;fillColor=#f8cecc;" edge="1" parent="LVs58O9YVb5k__v3N2jz-1">
                    <mxGeometry relative="1" as="geometry">
                        <mxPoint x="435" y="-40" as="sourcePoint"/>
                        <mxPoint x="535" y="-40" as="targetPoint"/>
                    </mxGeometry>
                </mxCell>
                <mxCell id="hDbm29PS_mauPwqaf9kC-12" value="Data flow" style="edgeLabel;resizable=0;html=1;align=center;verticalAlign=middle;labelBackgroundColor=#FAFAFA;fontSize=34;fontColor=#000000;strokeColor=#4D4D4D;strokeWidth=2;fillColor=#FAFAFA;" connectable="0" vertex="1" parent="hDbm29PS_mauPwqaf9kC-11">
                    <mxGeometry relative="1" as="geometry">
                        <mxPoint x="205" y="-10" as="offset"/>
                    </mxGeometry>
                </mxCell>
                <mxCell id="hDbm29PS_mauPwqaf9kC-13" value="" style="endArrow=classic;html=1;fontSize=34;fontColor=#000000;strokeWidth=2;strokeColor=#000000;" edge="1" parent="LVs58O9YVb5k__v3N2jz-1">
                    <mxGeometry relative="1" as="geometry">
                        <mxPoint x="435" y="-2" as="sourcePoint"/>
                        <mxPoint x="535" y="-2" as="targetPoint"/>
                    </mxGeometry>
                </mxCell>
                <mxCell id="hDbm29PS_mauPwqaf9kC-14" value="Dependency" style="edgeLabel;resizable=0;html=1;align=center;verticalAlign=middle;labelBackgroundColor=#FAFAFA;fontSize=34;fontColor=#000000;strokeColor=#4D4D4D;strokeWidth=2;fillColor=#FAFAFA;" connectable="0" vertex="1" parent="hDbm29PS_mauPwqaf9kC-13">
                    <mxGeometry relative="1" as="geometry">
                        <mxPoint x="215" y="2" as="offset"/>
                    </mxGeometry>
                </mxCell>
            </root>
        </mxGraphModel>
    </diagram>
</mxfile>